<svg xmlns="http://www.w3.org/2000/svg" viewBox="205.41 328.49 613.15 111.01"><g style="font-style:normal;font-weight:400;font-size:72px;line-height:1;font-family:&quot;Brandmark Sans 14 Color&quot;;font-variant-ligatures:normal;text-align:center;text-anchor:middle"><path fill="#1a0a06" d="M277.142 405.6c0 23.096-18.168 33.826-37.602 33.826s-34.126-11.232-34.126-11.232l10.818-20.878c6.58 6.88 17.312 10.144 23.308 10.144 6 0 11.074-4.64 11.074-9.48 0-17.576-41.208-6.474-41.208-40.962 0-22.106 15.832-32.77 33.61-32.77 17.136 0 30.132 8.06 30.132 8.06l-10.042 20.218s-8.402-6.74-16.226-6.74c-5.836 0-11.074 2.166-11.074 8.59 0 14.928 41.334 5.32 41.336 41.224z" aria-label="S" class="c1"/><path fill="#1a0a06" d="M364.207 402.908c0 20.105-15.669 36.586-39.662 36.586-23.992 0-39.66-16.481-39.66-36.586 0-20.106 15.668-36.404 39.66-36.404 23.993 0 39.662 16.298 39.662 36.404zm-24.6.09c0-8.697-6.743-15.747-15.062-15.747-8.317 0-15.06 7.05-15.06 15.747 0 8.699 6.743 15.75 15.06 15.75 8.319 0 15.062-7.051 15.062-15.75z" aria-label="o" class="c1"/><path fill="#1a0a06" d="M403.274 361.593v7.463h15.503v19.409h-15.503v48.377h-23.568v-48.377h-8.066v-19.409h8.066v-8.66c0-17.684 11.784-31.908 29.406-31.908 5.95 0 10.56 2.51 10.56 2.51v20.878c-8.015-3.755-16.398-4.79-16.398 9.717z" aria-label="f" class="c1"/><g aria-label="t"><path fill="#1a0a06" d="M467.41 419.737v19.557c-13.8 0-35.458-2.91-35.458-26.507v-23.009h-7.437v-20.782h7.437v-20.348h23.567v60.004c0 4.038 2.19 11.085 11.89 11.085z" class="c1"/><path fill="#ff5a34" d="M460.006 382.445c0-7.443 5.846-13.478 13.06-13.478 7.212 0 13.059 6.035 13.059 13.478 0 7.444-5.847 13.478-13.059 13.478-7.214 0-13.06-6.034-13.06-13.478z" class="c3"/></g><g aria-label="i"><path fill="#ff5a34" d="M494.038 342.974c0-7.443 5.847-13.478 13.059-13.478 7.214 0 13.06 6.035 13.06 13.478 0 7.444-5.846 13.48-13.06 13.48-7.212 0-13.059-6.036-13.059-13.48z" class="c3"/><path fill="#1a0a06" d="M495.248 436.79v-67.786h23.569v67.785h-23.57z" class="c1"/></g><path fill="#1a0a06" d="M644.793 392.518v44.232h-23.568v-35.398c0-10.918-3.783-14.813-10.555-14.813-5.42 0-8.074 3.646-9.372 7.847v42.364h-23.57v-35.398c0-10.918-3.782-14.813-10.554-14.813-9.803 0-10.585 7.76-10.585 13.34v36.87h-23.567v-67.785h23.567v8.266s4.361-9.718 19.47-9.718c10.304 0 19.605 4.519 23.409 14.411 2.372-4.71 8.644-14.411 20.088-14.411 13.455 0 25.238 7.671 25.237 25.006z" aria-label="m" class="c1"/><g aria-label="i"><path fill="#ff5a34" d="M656.882 342.974c0-7.443 5.847-13.478 13.059-13.478 7.213 0 13.06 6.035 13.06 13.478 0 7.444-5.847 13.48-13.06 13.48-7.212 0-13.059-6.036-13.059-13.48z" class="c3"/><path fill="#1a0a06" d="M658.091 436.79v-67.786h23.57v67.785h-23.57z" class="c1"/></g><path fill="#1a0a06" d="M749.364 413.808c0 18.576-17.098 25.503-31.42 25.503s-26.399-7.797-26.399-7.797l8.5-16.914s9.355 6.872 18.543 6.872c3.833 0 7.34-2.359 7.34-5.153 0-10.521-29.358-1.402-29.358-25.238 0-18.913 17.026-24.577 29.488-24.577 7.01 0 15.986 1.789 21.246 4.36l-7.856 15.593s-6.889-3.438-12.618-3.438c-4.912 0-7.21 2.472-7.21 4.891 0 8.03 29.745 1.885 29.744 25.898z" aria-label="s" class="c1"/><g aria-label="t"><path fill="#1a0a06" d="M799.847 419.737v19.557c-13.8 0-35.457-2.91-35.457-26.507v-23.009h-7.437v-20.782h7.437v-20.348h23.567v60.004c0 4.038 2.19 11.085 11.89 11.085z" class="c1"/><path fill="#ff5a34" d="M792.443 382.445c0-7.443 5.847-13.478 13.06-13.478s13.06 6.035 13.06 13.478c0 7.444-5.847 13.478-13.06 13.478s-13.06-6.034-13.06-13.478z" class="c3"/></g></g></svg>